<?xml version="1.0" standalone="no"?>
<!DOCTYPE svg PUBLIC "-//W3C//DTD SVG 20010904//EN"
 "http://www.w3.org/TR/2001/REC-SVG-20010904/DTD/svg10.dtd">
<svg version="1.0" xmlns="http://www.w3.org/2000/svg"
 width="236.000000pt" height="236.000000pt" viewBox="0 0 236.000000 236.000000"
 preserveAspectRatio="xMidYMid meet">
<metadata>
Created by potrace 1.14, written by Peter Selinger 2001-2017
</metadata>
<g transform="translate(0.000000,236.000000) scale(0.100000,-0.100000)"
fill="#000000" stroke="none">
<path d="M1001 2055 c-202 -46 -340 -123 -481 -271 -182 -191 -261 -404 -247
-663 16 -275 153 -514 383 -667 163 -108 323 -156 519 -157 249 0 461 84 639
253 185 176 268 371 269 630 0 232 -77 425 -240 600 -106 114 -267 213 -428
261 -92 28 -320 36 -414 14z m285 -46 c188 -26 348 -105 485 -239 48 -47 105
-114 128 -150 l42 -64 -34 -34 -34 -33 -136 138 -137 138 -147 -148 -147 -148
-55 56 -56 55 -58 -58 -58 -57 -152 158 -152 159 -144 -147 -144 -147 -35 35
-35 36 42 64 c23 36 73 96 111 134 194 198 452 289 716 252z m-429 -386 c46
-50 66 -79 57 -81 -14 -3 -13 -14 3 -77 3 -13 -17 2 -56 40 l-61 59 -66 -64
c-53 -51 -65 -60 -60 -40 4 14 10 41 13 61 4 31 2 37 -17 42 -21 5 -19 10 36
71 31 36 62 66 68 66 6 0 43 -35 83 -77z m868 -81 c-29 -4 -30 -6 -10 -61 8
-22 12 -41 9 -41 -3 0 -33 25 -66 55 l-61 54 -36 -28 c-47 -36 -91 -65 -91
-58 0 3 27 27 59 53 59 47 59 48 66 112 l7 65 74 -74 c70 -69 73 -74 49 -77z
m-9 -141 c65 -30 97 -78 137 -209 33 -106 37 -129 38 -244 2 -151 -1 -158 -75
-158 -48 0 -52 3 -66 33 -29 62 -108 93 -174 67 -42 -16 -30 -1 17 20 23 11
55 20 70 20 39 0 106 -36 119 -65 7 -16 19 -25 35 -25 23 0 23 1 23 116 0 105
-3 127 -35 228 -50 161 -80 186 -225 186 l-91 0 1 -277 c1 -153 1 -284 1 -290
-1 -10 -26 -13 -89 -13 l-88 0 -17 35 c-28 59 -102 89 -167 66 -27 -9 -30 -8
-21 3 6 7 32 19 57 26 60 17 112 2 153 -46 28 -31 36 -35 74 -32 l42 3 3 249
c2 175 -1 253 -9 262 -9 11 -54 14 -209 14 l-199 0 -20 -26 c-20 -25 -21 -39
-21 -265 l0 -239 36 0 c29 0 35 -3 30 -16 -3 -9 -6 -20 -6 -25 0 -5 -15 -9
-34 -9 -26 0 -40 7 -56 27 -21 26 -21 35 -18 278 2 201 6 255 18 274 30 47 52
50 400 50 295 1 329 -1 366 -18z m-826 -98 c0 -9 -18 -40 -40 -68 -22 -29 -47
-73 -56 -99 -20 -59 -15 -166 10 -219 31 -64 101 -132 176 -171 38 -20 70 -43
70 -51 0 -7 16 -27 35 -44 29 -25 45 -31 81 -31 49 0 89 16 118 49 17 19 30
21 121 21 82 0 104 -3 109 -15 10 -28 69 -55 118 -55 40 0 54 5 85 34 31 27
49 34 92 38 49 5 53 4 35 -9 -44 -34 -265 -134 -344 -156 -310 -89 -592 -42
-764 128 -86 84 -120 155 -124 260 -5 99 17 164 83 248 40 50 167 156 188 157
4 0 7 -7 7 -17z m275 -18 c0 -23 -5 -31 -22 -33 -20 -3 -23 1 -23 33 0 32 3
36 23 33 17 -2 22 -10 22 -33z m63 -137 c-3 -146 -5 -173 -18 -173 -13 0 -15
27 -18 173 -2 168 -2 172 18 172 20 0 20 -4 18 -172z m70 135 c3 -30 1 -33
-22 -33 -23 0 -26 4 -26 36 0 31 3 35 23 32 17 -2 23 -11 25 -35z m382 22 c35
-18 43 -31 74 -130 18 -57 21 -77 12 -81 -7 -3 -59 -3 -117 -2 l-104 3 -3 113
-3 112 56 0 c31 0 69 -7 85 -15z m-1130 -61 c22 -39 28 -59 21 -68 -7 -8 -4
-22 9 -44 27 -45 25 -52 -15 -52 -33 0 -35 -2 -35 -34 0 -19 -5 -38 -10 -41
-18 -11 -40 15 -40 46 0 26 -3 29 -35 29 -19 0 -35 2 -35 5 0 3 9 23 20 45 12
24 16 41 10 45 -9 6 14 61 48 112 18 29 23 25 62 -43z m1070 -219 c18 -22 2
-37 -33 -30 -38 8 -52 19 -43 34 10 16 62 13 76 -4z m-1082 -167 c26 -26 13
-38 -38 -38 -51 0 -64 12 -38 38 15 15 61 15 76 0z m675 -20 c33 -17 46 -39
47 -79 0 -64 -61 -104 -121 -79 -36 15 -49 37 -49 82 1 67 66 107 123 76z
m481 -18 c28 -27 28 -93 0 -120 -11 -11 -37 -23 -57 -27 -31 -5 -40 -1 -67 25
-21 21 -30 40 -30 62 0 22 9 41 30 62 27 26 36 30 67 25 20 -4 46 -16 57 -27z"/>
<path d="M1194 1856 c-18 -8 -37 -22 -42 -33 -9 -14 -13 -16 -23 -5 -20 19
-46 14 -68 -14 -26 -33 -26 -39 -1 -64 17 -17 33 -20 123 -20 56 0 107 4 113
8 36 24 36 78 0 110 -29 28 -65 34 -102 18z"/>
<path d="M1157 789 c-39 -22 -4 -79 35 -58 10 5 18 18 18 29 0 25 -30 41 -53
29z"/>
<path d="M1606 784 c-21 -20 -20 -41 1 -53 37 -20 71 27 41 57 -16 16 -23 15
-42 -4z"/>
</g>
</svg>
